<svg xmlns="http://www.w3.org/2000/svg" version="1.1" class="qr-svg " style="width: 100%; height: auto;" viewBox="0 0 45 45">
<defs><style>rect{shape-rendering:crispEdges}</style></defs>
<path class="qr-4 " stroke="transparent" fill="#fff" fill-opacity="1" d="M13 4 h4 v1 h-4Z M19 4 h1 v1 h-1Z M21 4 h1 v1 h-1Z M24 4 h6 v1 h-6Z M32 4 h1 v1 h-1Z M13 5 h2 v1 h-2Z M20 5 h2 v1 h-2Z M23 5 h1 v1 h-1Z M25 5 h2 v1 h-2Z M30 5 h2 v1 h-2Z M14 6 h2 v1 h-2Z M17 6 h1 v1 h-1Z M19 6 h2 v1 h-2Z M26 6 h2 v1 h-2Z M29 6 h1 v1 h-1Z M31 6 h2 v1 h-2Z M15 7 h1 v1 h-1Z M17 7 h4 v1 h-4Z M22 7 h1 v1 h-1Z M27 7 h1 v1 h-1Z M31 7 h1 v1 h-1Z M15 8 h1 v1 h-1Z M17 8 h4 v1 h-4Z M22 8 h1 v1 h-1Z M27 8 h1 v1 h-1Z M15 9 h5 v1 h-5Z M22 9 h1 v1 h-1Z M24 9 h1 v1 h-1Z M27 9 h2 v1 h-2Z M30 9 h2 v1 h-2Z M13 11 h1 v1 h-1Z M16 11 h1 v1 h-1Z M18 11 h1 v1 h-1Z M21 11 h5 v1 h-5Z M28 11 h4 v1 h-4Z M13 12 h1 v1 h-1Z M15 12 h1 v1 h-1Z M18 12 h5 v1 h-5Z M25 12 h1 v1 h-1Z M27 12 h1 v1 h-1Z M29 12 h3 v1 h-3Z M4 13 h1 v1 h-1Z M6 13 h1 v1 h-1Z M9 13 h1 v1 h-1Z M11 13 h1 v1 h-1Z M13 13 h4 v1 h-4Z M19 13 h1 v1 h-1Z M21 13 h1 v1 h-1Z M24 13 h5 v1 h-5Z M33 13 h3 v1 h-3Z M37 13 h1 v1 h-1Z M40 13 h1 v1 h-1Z M4 14 h1 v1 h-1Z M6 14 h1 v1 h-1Z M8 14 h1 v1 h-1Z M13 14 h7 v1 h-7Z M22 14 h1 v1 h-1Z M24 14 h1 v1 h-1Z M27 14 h3 v1 h-3Z M34 14 h2 v1 h-2Z M38 14 h1 v1 h-1Z M40 14 h1 v1 h-1Z M4 15 h1 v1 h-1Z M7 15 h2 v1 h-2Z M11 15 h1 v1 h-1Z M15 15 h1 v1 h-1Z M17 15 h1 v1 h-1Z M19 15 h2 v1 h-2Z M26 15 h2 v1 h-2Z M29 15 h1 v1 h-1Z M31 15 h1 v1 h-1Z M39 15 h1 v1 h-1Z M8 16 h1 v1 h-1Z M14 16 h1 v1 h-1Z M16 16 h1 v1 h-1Z M21 16 h1 v1 h-1Z M23 16 h4 v1 h-4Z M28 16 h2 v1 h-2Z M31 16 h1 v1 h-1Z M36 16 h2 v1 h-2Z M39 16 h1 v1 h-1Z M4 17 h2 v1 h-2Z M8 17 h2 v1 h-2Z M14 17 h2 v1 h-2Z M17 17 h4 v1 h-4Z M22 17 h1 v1 h-1Z M27 17 h1 v1 h-1Z M29 17 h1 v1 h-1Z M34 17 h1 v1 h-1Z M40 17 h1 v1 h-1Z M7 18 h1 v1 h-1Z M9 18 h1 v1 h-1Z M14 18 h1 v1 h-1Z M20 18 h2 v1 h-2Z M23 18 h1 v1 h-1Z M25 18 h2 v1 h-2Z M29 18 h1 v1 h-1Z M32 18 h1 v1 h-1Z M34 18 h1 v1 h-1Z M36 18 h5 v1 h-5Z M5 19 h1 v1 h-1Z M16 19 h1 v1 h-1Z M18 19 h1 v1 h-1Z M21 19 h5 v1 h-5Z M28 19 h2 v1 h-2Z M32 19 h1 v1 h-1Z M40 19 h1 v1 h-1Z M4 20 h1 v1 h-1Z M6 20 h1 v1 h-1Z M8 20 h2 v1 h-2Z M11 20 h1 v1 h-1Z M15 20 h1 v1 h-1Z M18 20 h5 v1 h-5Z M25 20 h1 v1 h-1Z M27 20 h1 v1 h-1Z M29 20 h3 v1 h-3Z M33 20 h1 v1 h-1Z M36 20 h2 v1 h-2Z M39 20 h1 v1 h-1Z M5 21 h1 v1 h-1Z M12 21 h1 v1 h-1Z M14 21 h3 v1 h-3Z M19 21 h1 v1 h-1Z M21 21 h1 v1 h-1Z M24 21 h5 v1 h-5Z M30 21 h1 v1 h-1Z M33 21 h3 v1 h-3Z M40 21 h1 v1 h-1Z M4 22 h1 v1 h-1Z M6 22 h3 v1 h-3Z M12 22 h2 v1 h-2Z M15 22 h5 v1 h-5Z M22 22 h1 v1 h-1Z M24 22 h1 v1 h-1Z M27 22 h4 v1 h-4Z M32 22 h2 v1 h-2Z M37 22 h4 v1 h-4Z M4 23 h3 v1 h-3Z M9 23 h1 v1 h-1Z M11 23 h1 v1 h-1Z M15 23 h1 v1 h-1Z M17 23 h1 v1 h-1Z M19 23 h2 v1 h-2Z M26 23 h2 v1 h-2Z M29 23 h3 v1 h-3Z M33 23 h1 v1 h-1Z M37 23 h1 v1 h-1Z M40 23 h1 v1 h-1Z M5 24 h2 v1 h-2Z M8 24 h1 v1 h-1Z M11 24 h2 v1 h-2Z M14 24 h1 v1 h-1Z M16 24 h1 v1 h-1Z M21 24 h1 v1 h-1Z M23 24 h4 v1 h-4Z M28 24 h5 v1 h-5Z M36 24 h2 v1 h-2Z M5 25 h1 v1 h-1Z M7 25 h2 v1 h-2Z M11 25 h1 v1 h-1Z M15 25 h1 v1 h-1Z M17 25 h4 v1 h-4Z M22 25 h1 v1 h-1Z M27 25 h1 v1 h-1Z M29 25 h1 v1 h-1Z M33 25 h3 v1 h-3Z M37 25 h2 v1 h-2Z M40 25 h1 v1 h-1Z M4 26 h1 v1 h-1Z M6 26 h1 v1 h-1Z M9 26 h1 v1 h-1Z M12 26 h1 v1 h-1Z M14 26 h1 v1 h-1Z M20 26 h2 v1 h-2Z M23 26 h1 v1 h-1Z M25 26 h2 v1 h-2Z M29 26 h2 v1 h-2Z M32 26 h1 v1 h-1Z M34 26 h1 v1 h-1Z M37 26 h4 v1 h-4Z M4 27 h1 v1 h-1Z M7 27 h1 v1 h-1Z M9 27 h1 v1 h-1Z M16 27 h1 v1 h-1Z M18 27 h1 v1 h-1Z M21 27 h5 v1 h-5Z M28 27 h6 v1 h-6Z M35 27 h3 v1 h-3Z M40 27 h1 v1 h-1Z M5 28 h5 v1 h-5Z M12 28 h1 v1 h-1Z M14 28 h2 v1 h-2Z M18 28 h5 v1 h-5Z M25 28 h1 v1 h-1Z M27 28 h1 v1 h-1Z M29 28 h2 v1 h-2Z M32 28 h1 v1 h-1Z M36 28 h2 v1 h-2Z M5 29 h3 v1 h-3Z M9 29 h1 v1 h-1Z M11 29 h2 v1 h-2Z M15 29 h2 v1 h-2Z M19 29 h1 v1 h-1Z M21 29 h1 v1 h-1Z M24 29 h5 v1 h-5Z M30 29 h1 v1 h-1Z M32 29 h1 v1 h-1Z M34 29 h2 v1 h-2Z M38 29 h1 v1 h-1Z M40 29 h1 v1 h-1Z M4 30 h2 v1 h-2Z M9 30 h1 v1 h-1Z M14 30 h6 v1 h-6Z M22 30 h1 v1 h-1Z M24 30 h1 v1 h-1Z M27 30 h4 v1 h-4Z M32 30 h4 v1 h-4Z M37 30 h1 v1 h-1Z M39 30 h2 v1 h-2Z M4 31 h2 v1 h-2Z M7 31 h2 v1 h-2Z M15 31 h1 v1 h-1Z M17 31 h1 v1 h-1Z M19 31 h2 v1 h-2Z M26 31 h2 v1 h-2Z M29 31 h6 v1 h-6Z M37 31 h1 v1 h-1Z M40 31 h1 v1 h-1Z M8 32 h2 v1 h-2Z M11 32 h1 v1 h-1Z M13 32 h1 v1 h-1Z M16 32 h1 v1 h-1Z M21 32 h1 v1 h-1Z M23 32 h4 v1 h-4Z M28 32 h1 v1 h-1Z M37 32 h1 v1 h-1Z M39 32 h2 v1 h-2Z M13 33 h3 v1 h-3Z M17 33 h4 v1 h-4Z M22 33 h1 v1 h-1Z M27 33 h1 v1 h-1Z M29 33 h1 v1 h-1Z M31 33 h1 v1 h-1Z M39 33 h2 v1 h-2Z M20 34 h2 v1 h-2Z M23 34 h1 v1 h-1Z M25 34 h2 v1 h-2Z M31 34 h1 v1 h-1Z M39 34 h2 v1 h-2Z M16 35 h1 v1 h-1Z M18 35 h1 v1 h-1Z M21 35 h5 v1 h-5Z M28 35 h1 v1 h-1Z M30 35 h2 v1 h-2Z M37 35 h1 v1 h-1Z M39 35 h1 v1 h-1Z M13 36 h3 v1 h-3Z M18 36 h5 v1 h-5Z M25 36 h1 v1 h-1Z M27 36 h1 v1 h-1Z M30 36 h2 v1 h-2Z M37 36 h1 v1 h-1Z M13 37 h1 v1 h-1Z M15 37 h2 v1 h-2Z M19 37 h1 v1 h-1Z M21 37 h1 v1 h-1Z M24 37 h5 v1 h-5Z M36 37 h2 v1 h-2Z M39 37 h2 v1 h-2Z M13 38 h1 v1 h-1Z M15 38 h5 v1 h-5Z M22 38 h1 v1 h-1Z M24 38 h1 v1 h-1Z M27 38 h4 v1 h-4Z M33 38 h1 v1 h-1Z M35 38 h4 v1 h-4Z M40 38 h1 v1 h-1Z M15 39 h1 v1 h-1Z M17 39 h1 v1 h-1Z M19 39 h2 v1 h-2Z M26 39 h2 v1 h-2Z M29 39 h1 v1 h-1Z M31 39 h2 v1 h-2Z M34 39 h1 v1 h-1Z M36 39 h2 v1 h-2Z M40 39 h1 v1 h-1Z M13 40 h1 v1 h-1Z M16 40 h1 v1 h-1Z M21 40 h1 v1 h-1Z M23 40 h4 v1 h-4Z M28 40 h1 v1 h-1Z M32 40 h4 v1 h-4Z M37 40 h1 v1 h-1Z " /><path class="qr-6 " stroke="transparent" fill="#fff" fill-opacity="1" d="M5 5 h5 v1 h-5Z M35 5 h5 v1 h-5Z M5 6 h1 v1 h-1Z M9 6 h1 v1 h-1Z M35 6 h1 v1 h-1Z M39 6 h1 v1 h-1Z M5 7 h1 v1 h-1Z M9 7 h1 v1 h-1Z M35 7 h1 v1 h-1Z M39 7 h1 v1 h-1Z M5 8 h1 v1 h-1Z M9 8 h1 v1 h-1Z M35 8 h1 v1 h-1Z M39 8 h1 v1 h-1Z M5 9 h5 v1 h-5Z M35 9 h5 v1 h-5Z M5 35 h5 v1 h-5Z M5 36 h1 v1 h-1Z M9 36 h1 v1 h-1Z M5 37 h1 v1 h-1Z M9 37 h1 v1 h-1Z M5 38 h1 v1 h-1Z M9 38 h1 v1 h-1Z M5 39 h5 v1 h-5Z " /><path class="qr-8 " stroke="transparent" fill="#fff" fill-opacity="1" d="M11 4 h1 v1 h-1Z M33 4 h1 v1 h-1Z M11 5 h1 v1 h-1Z M33 5 h1 v1 h-1Z M11 6 h1 v1 h-1Z M33 6 h1 v1 h-1Z M11 7 h1 v1 h-1Z M33 7 h1 v1 h-1Z M11 8 h1 v1 h-1Z M33 8 h1 v1 h-1Z M11 9 h1 v1 h-1Z M33 9 h1 v1 h-1Z M11 10 h1 v1 h-1Z M33 10 h1 v1 h-1Z M4 11 h8 v1 h-8Z M33 11 h8 v1 h-8Z M4 33 h8 v1 h-8Z M11 34 h1 v1 h-1Z M11 35 h1 v1 h-1Z M11 36 h1 v1 h-1Z M11 37 h1 v1 h-1Z M11 38 h1 v1 h-1Z M11 39 h1 v1 h-1Z M11 40 h1 v1 h-1Z " /><path class="qr-10 " stroke="transparent" fill="#fff" fill-opacity="1" d="M33 33 h3 v1 h-3Z M33 34 h1 v1 h-1Z M35 34 h1 v1 h-1Z M33 35 h3 v1 h-3Z " /><path class="qr-12 " stroke="transparent" fill="#fff" fill-opacity="1" d="M13 10 h1 v1 h-1Z M15 10 h1 v1 h-1Z M17 10 h1 v1 h-1Z M19 10 h1 v1 h-1Z M21 10 h1 v1 h-1Z M23 10 h1 v1 h-1Z M25 10 h1 v1 h-1Z M27 10 h1 v1 h-1Z M29 10 h1 v1 h-1Z M31 10 h1 v1 h-1Z M10 13 h1 v1 h-1Z M10 15 h1 v1 h-1Z M10 17 h1 v1 h-1Z M10 19 h1 v1 h-1Z M10 21 h1 v1 h-1Z M10 23 h1 v1 h-1Z M10 25 h1 v1 h-1Z M10 27 h1 v1 h-1Z M10 29 h1 v1 h-1Z M10 31 h1 v1 h-1Z " /><path class="qr-14 " stroke="transparent" fill="#fff" fill-opacity="1" d="M12 8 h1 v1 h-1Z M12 11 h1 v1 h-1Z M6 12 h2 v1 h-2Z M11 12 h2 v1 h-2Z M33 12 h2 v1 h-2Z M36 12 h1 v1 h-1Z M12 34 h1 v1 h-1Z M12 37 h1 v1 h-1Z M12 38 h1 v1 h-1Z " /><path class="qr-18 " stroke="transparent" fill="#fff" fill-opacity="1" d="M0 0 h45 v1 h-45Z M0 1 h45 v1 h-45Z M0 2 h45 v1 h-45Z M0 3 h45 v1 h-45Z M0 4 h4 v1 h-4Z M41 4 h4 v1 h-4Z M0 5 h4 v1 h-4Z M41 5 h4 v1 h-4Z M0 6 h4 v1 h-4Z M41 6 h4 v1 h-4Z M0 7 h4 v1 h-4Z M41 7 h4 v1 h-4Z M0 8 h4 v1 h-4Z M41 8 h4 v1 h-4Z M0 9 h4 v1 h-4Z M41 9 h4 v1 h-4Z M0 10 h4 v1 h-4Z M41 10 h4 v1 h-4Z M0 11 h4 v1 h-4Z M41 11 h4 v1 h-4Z M0 12 h4 v1 h-4Z M41 12 h4 v1 h-4Z M0 13 h4 v1 h-4Z M41 13 h4 v1 h-4Z M0 14 h4 v1 h-4Z M41 14 h4 v1 h-4Z M0 15 h4 v1 h-4Z M41 15 h4 v1 h-4Z M0 16 h4 v1 h-4Z M41 16 h4 v1 h-4Z M0 17 h4 v1 h-4Z M41 17 h4 v1 h-4Z M0 18 h4 v1 h-4Z M41 18 h4 v1 h-4Z M0 19 h4 v1 h-4Z M41 19 h4 v1 h-4Z M0 20 h4 v1 h-4Z M41 20 h4 v1 h-4Z M0 21 h4 v1 h-4Z M41 21 h4 v1 h-4Z M0 22 h4 v1 h-4Z M41 22 h4 v1 h-4Z M0 23 h4 v1 h-4Z M41 23 h4 v1 h-4Z M0 24 h4 v1 h-4Z M41 24 h4 v1 h-4Z M0 25 h4 v1 h-4Z M41 25 h4 v1 h-4Z M0 26 h4 v1 h-4Z M41 26 h4 v1 h-4Z M0 27 h4 v1 h-4Z M41 27 h4 v1 h-4Z M0 28 h4 v1 h-4Z M41 28 h4 v1 h-4Z M0 29 h4 v1 h-4Z M41 29 h4 v1 h-4Z M0 30 h4 v1 h-4Z M41 30 h4 v1 h-4Z M0 31 h4 v1 h-4Z M41 31 h4 v1 h-4Z M0 32 h4 v1 h-4Z M41 32 h4 v1 h-4Z M0 33 h4 v1 h-4Z M41 33 h4 v1 h-4Z M0 34 h4 v1 h-4Z M41 34 h4 v1 h-4Z M0 35 h4 v1 h-4Z M41 35 h4 v1 h-4Z M0 36 h4 v1 h-4Z M41 36 h4 v1 h-4Z M0 37 h4 v1 h-4Z M41 37 h4 v1 h-4Z M0 38 h4 v1 h-4Z M41 38 h4 v1 h-4Z M0 39 h4 v1 h-4Z M41 39 h4 v1 h-4Z M0 40 h4 v1 h-4Z M41 40 h4 v1 h-4Z M0 41 h45 v1 h-45Z M0 42 h45 v1 h-45Z M0 43 h45 v1 h-45Z M0 44 h45 v1 h-45Z " /><path class="qr-512 " stroke="transparent" fill="#000" fill-opacity="1" d="M12 33 h1 v1 h-1Z " /><path class="qr-1024 " stroke="transparent" fill="#000" fill-opacity="1" d="M17 4 h2 v1 h-2Z M20 4 h1 v1 h-1Z M22 4 h2 v1 h-2Z M30 4 h2 v1 h-2Z M15 5 h5 v1 h-5Z M22 5 h1 v1 h-1Z M24 5 h1 v1 h-1Z M27 5 h3 v1 h-3Z M32 5 h1 v1 h-1Z M13 6 h1 v1 h-1Z M16 6 h1 v1 h-1Z M18 6 h1 v1 h-1Z M21 6 h5 v1 h-5Z M28 6 h1 v1 h-1Z M30 6 h1 v1 h-1Z M13 7 h2 v1 h-2Z M16 7 h1 v1 h-1Z M21 7 h1 v1 h-1Z M23 7 h4 v1 h-4Z M28 7 h3 v1 h-3Z M32 7 h1 v1 h-1Z M13 8 h2 v1 h-2Z M16 8 h1 v1 h-1Z M21 8 h1 v1 h-1Z M23 8 h4 v1 h-4Z M28 8 h5 v1 h-5Z M13 9 h2 v1 h-2Z M20 9 h2 v1 h-2Z M23 9 h1 v1 h-1Z M25 9 h2 v1 h-2Z M29 9 h1 v1 h-1Z M32 9 h1 v1 h-1Z M14 11 h2 v1 h-2Z M17 11 h1 v1 h-1Z M19 11 h2 v1 h-2Z M26 11 h2 v1 h-2Z M32 11 h1 v1 h-1Z M14 12 h1 v1 h-1Z M16 12 h2 v1 h-2Z M23 12 h2 v1 h-2Z M26 12 h1 v1 h-1Z M28 12 h1 v1 h-1Z M32 12 h1 v1 h-1Z M5 13 h1 v1 h-1Z M7 13 h2 v1 h-2Z M12 13 h1 v1 h-1Z M17 13 h2 v1 h-2Z M20 13 h1 v1 h-1Z M22 13 h2 v1 h-2Z M29 13 h4 v1 h-4Z M36 13 h1 v1 h-1Z M38 13 h2 v1 h-2Z M5 14 h1 v1 h-1Z M7 14 h1 v1 h-1Z M9 14 h1 v1 h-1Z M11 14 h2 v1 h-2Z M20 14 h2 v1 h-2Z M23 14 h1 v1 h-1Z M25 14 h2 v1 h-2Z M30 14 h4 v1 h-4Z M36 14 h2 v1 h-2Z M39 14 h1 v1 h-1Z M5 15 h2 v1 h-2Z M9 15 h1 v1 h-1Z M12 15 h3 v1 h-3Z M16 15 h1 v1 h-1Z M18 15 h1 v1 h-1Z M21 15 h5 v1 h-5Z M28 15 h1 v1 h-1Z M30 15 h1 v1 h-1Z M32 15 h7 v1 h-7Z M40 15 h1 v1 h-1Z M4 16 h4 v1 h-4Z M9 16 h1 v1 h-1Z M11 16 h3 v1 h-3Z M15 16 h1 v1 h-1Z M17 16 h4 v1 h-4Z M22 16 h1 v1 h-1Z M27 16 h1 v1 h-1Z M30 16 h1 v1 h-1Z M32 16 h4 v1 h-4Z M38 16 h1 v1 h-1Z M40 16 h1 v1 h-1Z M6 17 h2 v1 h-2Z M11 17 h3 v1 h-3Z M16 17 h1 v1 h-1Z M21 17 h1 v1 h-1Z M23 17 h4 v1 h-4Z M28 17 h1 v1 h-1Z M30 17 h4 v1 h-4Z M35 17 h5 v1 h-5Z M4 18 h3 v1 h-3Z M8 18 h1 v1 h-1Z M11 18 h3 v1 h-3Z M15 18 h5 v1 h-5Z M22 18 h1 v1 h-1Z M24 18 h1 v1 h-1Z M27 18 h2 v1 h-2Z M30 18 h2 v1 h-2Z M33 18 h1 v1 h-1Z M35 18 h1 v1 h-1Z M4 19 h1 v1 h-1Z M6 19 h4 v1 h-4Z M11 19 h5 v1 h-5Z M17 19 h1 v1 h-1Z M19 19 h2 v1 h-2Z M26 19 h2 v1 h-2Z M30 19 h2 v1 h-2Z M33 19 h7 v1 h-7Z M5 20 h1 v1 h-1Z M7 20 h1 v1 h-1Z M12 20 h3 v1 h-3Z M16 20 h2 v1 h-2Z M23 20 h2 v1 h-2Z M26 20 h1 v1 h-1Z M28 20 h1 v1 h-1Z M32 20 h1 v1 h-1Z M34 20 h2 v1 h-2Z M38 20 h1 v1 h-1Z M40 20 h1 v1 h-1Z M4 21 h1 v1 h-1Z M6 21 h4 v1 h-4Z M11 21 h1 v1 h-1Z M13 21 h1 v1 h-1Z M17 21 h2 v1 h-2Z M20 21 h1 v1 h-1Z M22 21 h2 v1 h-2Z M29 21 h1 v1 h-1Z M31 21 h2 v1 h-2Z M36 21 h4 v1 h-4Z M5 22 h1 v1 h-1Z M9 22 h1 v1 h-1Z M11 22 h1 v1 h-1Z M14 22 h1 v1 h-1Z M20 22 h2 v1 h-2Z M23 22 h1 v1 h-1Z M25 22 h2 v1 h-2Z M31 22 h1 v1 h-1Z M34 22 h3 v1 h-3Z M7 23 h2 v1 h-2Z M12 23 h3 v1 h-3Z M16 23 h1 v1 h-1Z M18 23 h1 v1 h-1Z M21 23 h5 v1 h-5Z M28 23 h1 v1 h-1Z M32 23 h1 v1 h-1Z M34 23 h3 v1 h-3Z M38 23 h2 v1 h-2Z M4 24 h1 v1 h-1Z M7 24 h1 v1 h-1Z M9 24 h1 v1 h-1Z M13 24 h1 v1 h-1Z M15 24 h1 v1 h-1Z M17 24 h4 v1 h-4Z M22 24 h1 v1 h-1Z M27 24 h1 v1 h-1Z M33 24 h3 v1 h-3Z M38 24 h3 v1 h-3Z M4 25 h1 v1 h-1Z M6 25 h1 v1 h-1Z M9 25 h1 v1 h-1Z M12 25 h3 v1 h-3Z M16 25 h1 v1 h-1Z M21 25 h1 v1 h-1Z M23 25 h4 v1 h-4Z M28 25 h1 v1 h-1Z M30 25 h3 v1 h-3Z M36 25 h1 v1 h-1Z M39 25 h1 v1 h-1Z M5 26 h1 v1 h-1Z M7 26 h2 v1 h-2Z M11 26 h1 v1 h-1Z M13 26 h1 v1 h-1Z M15 26 h5 v1 h-5Z M22 26 h1 v1 h-1Z M24 26 h1 v1 h-1Z M27 26 h2 v1 h-2Z M31 26 h1 v1 h-1Z M33 26 h1 v1 h-1Z M35 26 h2 v1 h-2Z M5 27 h2 v1 h-2Z M8 27 h1 v1 h-1Z M11 27 h5 v1 h-5Z M17 27 h1 v1 h-1Z M19 27 h2 v1 h-2Z M26 27 h2 v1 h-2Z M34 27 h1 v1 h-1Z M38 27 h2 v1 h-2Z M4 28 h1 v1 h-1Z M11 28 h1 v1 h-1Z M13 28 h1 v1 h-1Z M16 28 h2 v1 h-2Z M23 28 h2 v1 h-2Z M26 28 h1 v1 h-1Z M28 28 h1 v1 h-1Z M31 28 h1 v1 h-1Z M33 28 h3 v1 h-3Z M38 28 h3 v1 h-3Z M4 29 h1 v1 h-1Z M8 29 h1 v1 h-1Z M13 29 h2 v1 h-2Z M17 29 h2 v1 h-2Z M20 29 h1 v1 h-1Z M22 29 h2 v1 h-2Z M29 29 h1 v1 h-1Z M31 29 h1 v1 h-1Z M33 29 h1 v1 h-1Z M36 29 h2 v1 h-2Z M39 29 h1 v1 h-1Z M6 30 h3 v1 h-3Z M11 30 h3 v1 h-3Z M20 30 h2 v1 h-2Z M23 30 h1 v1 h-1Z M25 30 h2 v1 h-2Z M31 30 h1 v1 h-1Z M36 30 h1 v1 h-1Z M38 30 h1 v1 h-1Z M6 31 h1 v1 h-1Z M9 31 h1 v1 h-1Z M11 31 h4 v1 h-4Z M16 31 h1 v1 h-1Z M18 31 h1 v1 h-1Z M21 31 h5 v1 h-5Z M28 31 h1 v1 h-1Z M35 31 h2 v1 h-2Z M38 31 h2 v1 h-2Z M4 32 h4 v1 h-4Z M12 32 h1 v1 h-1Z M14 32 h2 v1 h-2Z M17 32 h4 v1 h-4Z M22 32 h1 v1 h-1Z M27 32 h1 v1 h-1Z M29 32 h3 v1 h-3Z M38 32 h1 v1 h-1Z M16 33 h1 v1 h-1Z M21 33 h1 v1 h-1Z M23 33 h4 v1 h-4Z M28 33 h1 v1 h-1Z M30 33 h1 v1 h-1Z M37 33 h2 v1 h-2Z M13 34 h7 v1 h-7Z M22 34 h1 v1 h-1Z M24 34 h1 v1 h-1Z M27 34 h4 v1 h-4Z M37 34 h2 v1 h-2Z M13 35 h3 v1 h-3Z M17 35 h1 v1 h-1Z M19 35 h2 v1 h-2Z M26 35 h2 v1 h-2Z M29 35 h1 v1 h-1Z M38 35 h1 v1 h-1Z M40 35 h1 v1 h-1Z M16 36 h2 v1 h-2Z M23 36 h2 v1 h-2Z M26 36 h1 v1 h-1Z M28 36 h2 v1 h-2Z M38 36 h3 v1 h-3Z M14 37 h1 v1 h-1Z M17 37 h2 v1 h-2Z M20 37 h1 v1 h-1Z M22 37 h2 v1 h-2Z M29 37 h7 v1 h-7Z M38 37 h1 v1 h-1Z M14 38 h1 v1 h-1Z M20 38 h2 v1 h-2Z M23 38 h1 v1 h-1Z M25 38 h2 v1 h-2Z M31 38 h2 v1 h-2Z M34 38 h1 v1 h-1Z M39 38 h1 v1 h-1Z M13 39 h2 v1 h-2Z M16 39 h1 v1 h-1Z M18 39 h1 v1 h-1Z M21 39 h5 v1 h-5Z M28 39 h1 v1 h-1Z M30 39 h1 v1 h-1Z M33 39 h1 v1 h-1Z M35 39 h1 v1 h-1Z M38 39 h2 v1 h-2Z M14 40 h2 v1 h-2Z M17 40 h4 v1 h-4Z M22 40 h1 v1 h-1Z M27 40 h1 v1 h-1Z M29 40 h3 v1 h-3Z M36 40 h1 v1 h-1Z M38 40 h3 v1 h-3Z " /><path class="qr-1536 " stroke="transparent" fill="#000" fill-opacity="1" d="M4 4 h7 v1 h-7Z M34 4 h7 v1 h-7Z M4 5 h1 v1 h-1Z M10 5 h1 v1 h-1Z M34 5 h1 v1 h-1Z M40 5 h1 v1 h-1Z M4 6 h1 v1 h-1Z M6 6 h3 v1 h-3Z M10 6 h1 v1 h-1Z M34 6 h1 v1 h-1Z M36 6 h3 v1 h-3Z M40 6 h1 v1 h-1Z M4 7 h1 v1 h-1Z M6 7 h3 v1 h-3Z M10 7 h1 v1 h-1Z M34 7 h1 v1 h-1Z M36 7 h3 v1 h-3Z M40 7 h1 v1 h-1Z M4 8 h1 v1 h-1Z M6 8 h3 v1 h-3Z M10 8 h1 v1 h-1Z M34 8 h1 v1 h-1Z M36 8 h3 v1 h-3Z M40 8 h1 v1 h-1Z M4 9 h1 v1 h-1Z M10 9 h1 v1 h-1Z M34 9 h1 v1 h-1Z M40 9 h1 v1 h-1Z M4 10 h7 v1 h-7Z M34 10 h7 v1 h-7Z M4 34 h7 v1 h-7Z M4 35 h1 v1 h-1Z M10 35 h1 v1 h-1Z M4 36 h1 v1 h-1Z M6 36 h3 v1 h-3Z M10 36 h1 v1 h-1Z M4 37 h1 v1 h-1Z M6 37 h3 v1 h-3Z M10 37 h1 v1 h-1Z M4 38 h1 v1 h-1Z M6 38 h3 v1 h-3Z M10 38 h1 v1 h-1Z M4 39 h1 v1 h-1Z M10 39 h1 v1 h-1Z M4 40 h7 v1 h-7Z " /><path class="qr-2560 " stroke="transparent" fill="#000" fill-opacity="1" d="M32 32 h5 v1 h-5Z M32 33 h1 v1 h-1Z M36 33 h1 v1 h-1Z M32 34 h1 v1 h-1Z M34 34 h1 v1 h-1Z M36 34 h1 v1 h-1Z M32 35 h1 v1 h-1Z M36 35 h1 v1 h-1Z M32 36 h5 v1 h-5Z " /><path class="qr-3072 " stroke="transparent" fill="#000" fill-opacity="1" d="M12 10 h1 v1 h-1Z M14 10 h1 v1 h-1Z M16 10 h1 v1 h-1Z M18 10 h1 v1 h-1Z M20 10 h1 v1 h-1Z M22 10 h1 v1 h-1Z M24 10 h1 v1 h-1Z M26 10 h1 v1 h-1Z M28 10 h1 v1 h-1Z M30 10 h1 v1 h-1Z M32 10 h1 v1 h-1Z M10 12 h1 v1 h-1Z M10 14 h1 v1 h-1Z M10 16 h1 v1 h-1Z M10 18 h1 v1 h-1Z M10 20 h1 v1 h-1Z M10 22 h1 v1 h-1Z M10 24 h1 v1 h-1Z M10 26 h1 v1 h-1Z M10 28 h1 v1 h-1Z M10 30 h1 v1 h-1Z M10 32 h1 v1 h-1Z " /><path class="qr-3584 " stroke="transparent" fill="#000" fill-opacity="1" d="M12 4 h1 v1 h-1Z M12 5 h1 v1 h-1Z M12 6 h1 v1 h-1Z M12 7 h1 v1 h-1Z M12 9 h1 v1 h-1Z M4 12 h2 v1 h-2Z M8 12 h2 v1 h-2Z M35 12 h1 v1 h-1Z M37 12 h4 v1 h-4Z M12 35 h1 v1 h-1Z M12 36 h1 v1 h-1Z M12 39 h1 v1 h-1Z M12 40 h1 v1 h-1Z " /></svg>
